<svg xmlns="http://www.w3.org/2000/svg" xmlns:xlink="http://www.w3.org/1999/xlink" version="1.1" width="256" height="256" viewBox="0 0 256 256" xml:space="preserve">
<desc>Created with Fabric.js 1.7.22</desc>
<defs>
</defs>
<g transform="translate(128 128) scale(0.72 0.72)" style="">
	<g style="stroke: none; stroke-width: 0; stroke-dasharray: none; stroke-linecap: butt; stroke-linejoin: miter; stroke-miterlimit: 10; fill: none; fill-rule: nonzero; opacity: 1;" transform="translate(-175.05 -175.05000000000004) scale(3.89 3.89)" >
	<path d="M 66.437 24.873 c 0.382 -1.923 -0.02 -3.815 -1.129 -5.329 c -1.108 -1.514 -2.791 -2.467 -4.739 -2.685 c -1.918 -0.215 -3.853 0.314 -5.455 1.487 l -32.62 23.888 l 0.161 -8.456 c 0.036 -1.889 -0.682 -3.638 -2.023 -4.924 c -1.388 -1.332 -3.25 -1.999 -5.258 -1.878 c -4.003 0.242 -7.319 3.62 -7.394 7.529 L 7.399 65.128 C 7.276 70.599 8.867 75.753 12 80.031 c 4.799 6.553 12.408 9.97 20.359 9.969 c 5.88 0 11.948 -1.868 17.205 -5.718 l 13.652 -9.998 c 3.344 -2.45 4.212 -6.972 1.935 -10.081 c -1.108 -1.513 -2.791 -2.467 -4.739 -2.684 c -0.013 -0.001 -0.025 -0.001 -0.038 -0.002 l 0.359 -0.263 c 1.601 -1.173 2.69 -2.86 3.064 -4.751 c 0.382 -1.922 -0.02 -3.816 -1.129 -5.329 c -1.108 -1.513 -2.791 -2.467 -4.739 -2.685 c -0.351 -0.04 -0.702 -0.046 -1.052 -0.036 c 0.446 -0.746 0.771 -1.56 0.942 -2.42 c 0.381 -1.922 -0.021 -3.815 -1.129 -5.329 c -1.154 -1.576 -2.899 -2.488 -4.774 -2.689 l 11.458 -8.391 C 64.974 28.451 66.063 26.764 66.437 24.873 z M 62.192 28.011 L 46.495 39.507 l -9.183 6.725 c -0.446 0.326 -0.542 0.952 -0.216 1.397 c 0.326 0.446 0.95 0.543 1.397 0.216 l 9.183 -6.725 c 2.456 -1.798 5.775 -1.453 7.401 0.765 c 0.773 1.057 1.051 2.392 0.78 3.759 c -0.277 1.398 -1.089 2.651 -2.285 3.527 l -9.183 6.725 c -0.446 0.326 -0.542 0.952 -0.216 1.397 c 0.091 0.125 0.209 0.215 0.337 0.284 c 0.038 0.021 0.079 0.028 0.119 0.043 c 0.095 0.036 0.189 0.062 0.29 0.068 c 0.021 0.001 0.041 0.014 0.062 0.014 c 0.049 0 0.096 -0.015 0.145 -0.023 c 0.039 -0.006 0.078 -0.008 0.116 -0.018 c 0.115 -0.031 0.227 -0.078 0.329 -0.153 l 8.084 -5.92 c 1.195 -0.876 2.633 -1.277 4.052 -1.113 c 1.384 0.154 2.574 0.821 3.348 1.879 c 0.774 1.057 1.052 2.392 0.781 3.759 c -0.277 1.398 -1.089 2.651 -2.285 3.527 l -7.927 5.805 c -0.445 0.326 -0.542 0.952 -0.216 1.397 c 0.195 0.268 0.499 0.409 0.807 0.409 c 0.205 0 0.412 -0.062 0.59 -0.193 l 3.33 -2.439 c 0.001 0 0.001 0 0.002 -0.001 c 1.195 -0.876 2.633 -1.27 4.052 -1.113 c 1.385 0.154 2.574 0.822 3.348 1.879 c 1.626 2.219 0.951 5.488 -1.504 7.287 l -13.652 9.998 c -11.475 8.403 -27.073 6.69 -34.77 -3.82 c -2.871 -3.92 -4.328 -8.65 -4.215 -13.681 l 0.582 -30.625 c 0.055 -2.892 2.529 -5.391 5.515 -5.572 c 1.447 -0.086 2.772 0.384 3.753 1.325 c 0.933 0.895 1.433 2.118 1.407 3.443 l -0.199 10.474 c -0.007 0.38 0.202 0.731 0.539 0.907 c 0.338 0.174 0.744 0.143 1.052 -0.081 L 56.295 19.96 c 1.195 -0.876 2.632 -1.274 4.052 -1.113 c 1.384 0.154 2.574 0.822 3.348 1.879 s 1.052 2.392 0.781 3.759 C 64.199 25.883 63.388 27.135 62.192 28.011 z" style="stroke: none; stroke-width: 1; stroke-dasharray: none; stroke-linecap: butt; stroke-linejoin: miter; stroke-miterlimit: 10; fill: rgb(0,0,0); fill-rule: nonzero; opacity: 1;" transform=" matrix(1 0 0 1 0 0) " stroke-linecap="round" />
	<line x1="-3.2135" y1="-4.606" x2="3.2135" y2="4.606" style="stroke: none; stroke-width: 1; stroke-dasharray: none; stroke-linecap: butt; stroke-linejoin: miter; stroke-miterlimit: 10; fill: rgb(0,0,0); fill-rule: nonzero; opacity: 1;" transform=" matrix(1 0 0 1 0 0) "/>
	<path d="M 53.044 14.909 c -0.316 0 -0.627 -0.149 -0.821 -0.428 l -6.427 -9.212 c -0.316 -0.453 -0.205 -1.076 0.248 -1.392 c 0.456 -0.316 1.077 -0.205 1.392 0.248 l 6.427 9.212 c 0.315 0.453 0.205 1.076 -0.248 1.392 C 53.441 14.851 53.241 14.909 53.044 14.909 z" style="stroke: none; stroke-width: 1; stroke-dasharray: none; stroke-linecap: butt; stroke-linejoin: miter; stroke-miterlimit: 10; fill: rgb(0,0,0); fill-rule: nonzero; opacity: 1;" transform=" matrix(1 0 0 1 0 0) " stroke-linecap="round" />
	<line x1="-3.2139999999999986" y1="-4.606000000000002" x2="3.2139999999999986" y2="4.606000000000002" style="stroke: none; stroke-width: 1; stroke-dasharray: none; stroke-linecap: butt; stroke-linejoin: miter; stroke-miterlimit: 10; fill: rgb(0,0,0); fill-rule: nonzero; opacity: 1;" transform=" matrix(1 0 0 1 0 0) "/>
	<path d="M 72.341 42.566 c -0.316 0 -0.627 -0.149 -0.821 -0.428 l -6.427 -9.212 c -0.315 -0.453 -0.205 -1.076 0.248 -1.392 c 0.456 -0.317 1.077 -0.205 1.392 0.248 l 6.427 9.212 c 0.315 0.453 0.205 1.076 -0.248 1.392 C 72.737 42.508 72.538 42.566 72.341 42.566 z" style="stroke: none; stroke-width: 1; stroke-dasharray: none; stroke-linecap: butt; stroke-linejoin: miter; stroke-miterlimit: 10; fill: rgb(0,0,0); fill-rule: nonzero; opacity: 1;" transform=" matrix(1 0 0 1 0 0) " stroke-linecap="round" />
	<line x1="-4.606000000000002" y1="3.2139999999999995" x2="4.606000000000002" y2="-3.2139999999999995" style="stroke: none; stroke-width: 1; stroke-dasharray: none; stroke-linecap: butt; stroke-linejoin: miter; stroke-miterlimit: 10; fill: rgb(0,0,0); fill-rule: nonzero; opacity: 1;" transform=" matrix(1 0 0 1 0 0) "/>
	<path d="M 70.418 17.055 c -0.316 0 -0.627 -0.149 -0.821 -0.428 c -0.315 -0.453 -0.205 -1.076 0.248 -1.392 l 9.212 -6.427 c 0.455 -0.317 1.077 -0.205 1.392 0.248 c 0.315 0.453 0.205 1.076 -0.248 1.392 l -9.212 6.427 C 70.814 16.997 70.615 17.055 70.418 17.055 z" style="stroke: none; stroke-width: 1; stroke-dasharray: none; stroke-linecap: butt; stroke-linejoin: miter; stroke-miterlimit: 10; fill: rgb(0,0,0); fill-rule: nonzero; opacity: 1;" transform=" matrix(1 0 0 1 0 0) " stroke-linecap="round" />
	<line x1="-5.529499999999999" y1="-0.9844999999999988" x2="5.529499999999999" y2="0.9844999999999988" style="stroke: none; stroke-width: 1; stroke-dasharray: none; stroke-linecap: butt; stroke-linejoin: miter; stroke-miterlimit: 10; fill: rgb(0,0,0); fill-rule: nonzero; opacity: 1;" transform=" matrix(1 0 0 1 0 0) "/>
	<path d="M 81.609 28.072 c -0.058 0 -0.117 -0.005 -0.176 -0.016 l -11.059 -1.969 c -0.544 -0.097 -0.906 -0.616 -0.809 -1.159 c 0.097 -0.543 0.617 -0.911 1.159 -0.809 l 11.059 1.969 c 0.544 0.097 0.906 0.616 0.809 1.159 C 82.506 27.731 82.084 28.072 81.609 28.072 z" style="stroke: none; stroke-width: 1; stroke-dasharray: none; stroke-linecap: butt; stroke-linejoin: miter; stroke-miterlimit: 10; fill: rgb(0,0,0); fill-rule: nonzero; opacity: 1;" transform=" matrix(1 0 0 1 0 0) " stroke-linecap="round" />
	<line x1="0.9845000000000006" y1="-5.5295000000000005" x2="-0.9845000000000006" y2="5.5295000000000005" style="stroke: none; stroke-width: 1; stroke-dasharray: none; stroke-linecap: butt; stroke-linejoin: miter; stroke-miterlimit: 10; fill: rgb(0,0,0); fill-rule: nonzero; opacity: 1;" transform=" matrix(1 0 0 1 0 0) "/>
	<path d="M 61.45 13.06 c -0.058 0 -0.117 -0.005 -0.177 -0.016 c -0.543 -0.097 -0.905 -0.616 -0.808 -1.159 l 1.969 -11.059 c 0.096 -0.543 0.605 -0.912 1.16 -0.809 c 0.543 0.097 0.905 0.616 0.808 1.159 l -1.969 11.059 C 62.347 12.72 61.925 13.06 61.45 13.06 z" style="stroke: none; stroke-width: 1; stroke-dasharray: none; stroke-linecap: butt; stroke-linejoin: miter; stroke-miterlimit: 10; fill: rgb(0,0,0); fill-rule: nonzero; opacity: 1;" transform=" matrix(1 0 0 1 0 0) " stroke-linecap="round" />
</g>
</g>
</svg>