<?xml version="1.0" encoding="UTF-8" standalone="no"?>
<!-- Created with Inkscape (http://www.inkscape.org/) -->

<svg
   width="210mm"
   height="297mm"
   viewBox="0 0 210 297"
   version="1.1"
   id="svg266"
   inkscape:version="1.2 (dc2aedaf03, 2022-05-15)"
   sodipodi:docname="convertedsmall.svg"
   xmlns:inkscape="http://www.inkscape.org/namespaces/inkscape"
   xmlns:sodipodi="http://sodipodi.sourceforge.net/DTD/sodipodi-0.dtd"
   xmlns="http://www.w3.org/2000/svg"
   xmlns:svg="http://www.w3.org/2000/svg">
  <sodipodi:namedview
     id="namedview268"
     pagecolor="#ffffff"
     bordercolor="#000000"
     borderopacity="0.25"
     inkscape:showpageshadow="2"
     inkscape:pageopacity="0.0"
     inkscape:pagecheckerboard="0"
     inkscape:deskcolor="#d1d1d1"
     inkscape:document-units="mm"
     showgrid="false"
     inkscape:zoom="0.5852904"
     inkscape:cx="396.38442"
     inkscape:cy="562.11412"
     inkscape:window-width="1600"
     inkscape:window-height="837"
     inkscape:window-x="-8"
     inkscape:window-y="-8"
     inkscape:window-maximized="1"
     inkscape:current-layer="layer1" />
  <defs
     id="defs263" />
  <g
     inkscape:label="Layer 1"
     inkscape:groupmode="layer"
     id="layer1">
    <g
       id="Layer_1"
       transform="matrix(0.74092981,0,0,0.74092981,80.840004,25.448718)">
      <title
         id="title20">Layer 1</title>
      <g
         id="g29">
        <g
           id="g27">
          <title
             id="title22">Layer 1</title>
          <path
             fill-opacity="0.5"
             d="M 14.99999,101.92857 50.46429,31 h 94.57145 l 35.46428,70.92857 -35.46428,70.92857 H 50.46429 Z"
             id="svg_3"
             stroke-width="6"
             stroke="#bee3f8" />
          <g
             aria-label="KH"
             id="svg_2"
             style="font-size:48px;font-family:'Roboto Slab';fill:#bee3f8;stroke:#bee3f8;stroke-width:0">
            <path
               d="M 88.882187,99.814323 H 82.858749 L 69.054062,84.275261 65.585312,87.978386 V 99.814323 H 60.944687 V 64.915886 h 4.640625 V 83.126823 L 82.530624,64.915886 h 5.625 l -15.585937,16.40625 z"
               id="path323" />
            <path
               d="M 120.78062,99.814323 H 116.14 V 82.728386 H 98.725937 V 99.814323 H 94.085312 V 64.915886 h 4.640625 v 13.6875 H 116.14 v -13.6875 h 4.64062 z"
               id="path325" />
          </g>
          <g
             aria-label="GC"
             id="svg_1"
             style="font-size:48px;font-family:'Roboto Slab';fill:#bee3f8;stroke:#bee3f8;stroke-width:0">
            <path
               d="m 108.93687,144.23619 q -2.85937,1.3125 -6.25781,2.29688 -3.374998,0.96093 -6.539061,0.96093 -4.078125,0 -7.476562,-1.125 -3.398438,-1.125 -5.789063,-3.375 -2.414062,-2.27343 -3.726562,-5.67187 -1.3125,-3.42188 -1.3125,-7.99219 0,-8.36719 4.875,-13.19531 4.898437,-4.85156 13.429687,-4.85156 2.976563,0 6.070311,0.72656 3.11719,0.70312 6.70313,2.41406 v 5.50781 h -0.42188 q -0.72656,-0.5625 -2.10937,-1.47656 -1.38282,-0.91406 -2.71875,-1.52344 -1.61719,-0.72656 -3.679691,-1.19531 -2.039062,-0.49219 -4.640625,-0.49219 -5.859375,0 -9.28125,3.77344 -3.398437,3.75 -3.398437,10.17188 0,6.77343 3.5625,10.54687 3.5625,3.75 9.703125,3.75 2.25,0 4.476558,-0.44531 2.25,-0.44531 3.9375,-1.14844 v -8.55469 h -9.351558 v -4.07812 h 13.945308 z"
               id="path328" />
            <path
               d="m 143.99937,144.28307 q -1.28906,0.5625 -2.34375,1.05468 -1.03125,0.49219 -2.71875,1.03125 -1.42968,0.44532 -3.11718,0.75 -1.66407,0.32813 -3.67969,0.32813 -3.79688,0 -6.91406,-1.05469 -3.09375,-1.07812 -5.39063,-3.35156 -2.25,-2.22656 -3.51562,-5.64844 -1.26563,-3.44531 -1.26563,-7.99219 0,-4.3125 1.21875,-7.71093 1.21875,-3.39844 3.51563,-5.74219 2.22656,-2.27344 5.36718,-3.46875 3.16407,-1.19531 7.00782,-1.19531 2.8125,0 5.60156,0.67968 2.8125,0.67969 6.23437,2.39063 v 5.50781 h -0.35156 q -2.88281,-2.41406 -5.71875,-3.51562 -2.83594,-1.10157 -6.07031,-1.10157 -2.64844,0 -4.78125,0.86719 -2.10938,0.84375 -3.77344,2.64844 -1.61719,1.75781 -2.53125,4.45312 -0.89062,2.67188 -0.89062,6.1875 0,3.67969 0.98437,6.32813 1.00781,2.64844 2.57813,4.3125 1.64062,1.73437 3.82031,2.57812 2.20312,0.82032 4.64062,0.82032 3.35157,0 6.28125,-1.14844 2.92969,-1.14844 5.48438,-3.44531 h 0.32812 z"
               id="path330" />
          </g>
        </g>
      </g>
    </g>
  </g>
</svg>
