<?xml version="1.0" encoding="UTF-8" standalone="no"?>
<svg
   width="200"
   height="200"
   version="1.1"
   id="svg32"
   sodipodi:docname="convertedsvg.svg"
   inkscape:version="1.2 (dc2aedaf03, 2022-05-15)"
   xmlns:inkscape="http://www.inkscape.org/namespaces/inkscape"
   xmlns:sodipodi="http://sodipodi.sourceforge.net/DTD/sodipodi-0.dtd"
   xmlns="http://www.w3.org/2000/svg"
   xmlns:svg="http://www.w3.org/2000/svg">
  <defs
     id="defs36" />
  <sodipodi:namedview
     id="namedview34"
     pagecolor="#ffffff"
     bordercolor="#000000"
     borderopacity="0.25"
     inkscape:showpageshadow="2"
     inkscape:pageopacity="0.0"
     inkscape:pagecheckerboard="0"
     inkscape:deskcolor="#d1d1d1"
     showgrid="false"
     inkscape:zoom="3.285"
     inkscape:cx="65.905632"
     inkscape:cy="100.15221"
     inkscape:window-width="1600"
     inkscape:window-height="837"
     inkscape:window-x="-8"
     inkscape:window-y="-8"
     inkscape:window-maximized="1"
     inkscape:current-layer="svg32" />
  <g
     id="Layer_1">
    <title
       id="title20">Layer 1</title>
    <g
       id="g29">
      <g
         id="g27">
        <title
           id="title22">Layer 1</title>
        <g
           id="svg_3">
          <path
             style="color:#000000;fill:#000000;fill-opacity:0.5;stroke-width:6;-inkscape-stroke:none"
             d="M 14.99999,101.92857 50.46429,31 h 94.57145 l 35.46428,70.92857 -35.46428,70.92857 H 50.46429 Z"
             id="path389" />
          <path
             style="color:#000000;fill:#bee3f8;-inkscape-stroke:none"
             d="m 48.609375,28 -36.962891,73.92773 0.669922,1.3418 36.292969,72.58789 H 146.89062 L 183.85352,101.92773 146.89062,28 Z m 3.708984,6 h 90.863281 l 33.96484,67.92773 -33.96484,67.92969 H 52.318359 L 18.353516,101.92969 Z"
             id="path391" />
        </g>
        <g
           aria-label="KH"
           id="svg_2"
           style="font-size:48px;font-family:'Roboto Slab';fill:#bee3f8;stroke:#bee3f8;stroke-width:0">
          <g
             id="path393">
            <path
               style="color:#000000;stroke:none;-inkscape-stroke:none"
               d="M 88.882187,99.814323 H 82.858749 L 69.054062,84.275261 65.585312,87.978386 V 99.814323 H 60.944687 V 64.915886 h 4.640625 V 83.126823 L 82.530624,64.915886 h 5.625 l -15.585937,16.40625 z"
               id="path400" />
            <path
               style="color:#000000;stroke:none;-inkscape-stroke:none"
               d="M 88.882187,99.814323 H 82.858749 L 69.054062,84.275261 65.585312,87.978386 V 99.814323 H 60.944687 V 64.915886 h 4.640625 V 83.126823 L 82.530624,64.915886 h 5.625 l -15.585937,16.40625 z"
               id="path402" />
          </g>
          <g
             id="path395">
            <path
               style="color:#000000;stroke:none;-inkscape-stroke:none"
               d="M 120.78062,99.814323 H 116.14 V 82.728386 H 98.725937 V 99.814323 H 94.085312 V 64.915886 h 4.640625 v 13.6875 H 116.14 v -13.6875 h 4.64062 z"
               id="path406" />
            <path
               style="color:#000000;stroke:none;-inkscape-stroke:none"
               d="M 120.78062,99.814323 H 116.14 V 82.728386 H 98.725937 V 99.814323 H 94.085312 V 64.915886 h 4.640625 v 13.6875 H 116.14 v -13.6875 h 4.64062 z"
               id="path408" />
          </g>
        </g>
        <g
           aria-label="GC"
           id="svg_1"
           style="font-size:48px;font-family:'Roboto Slab';fill:#bee3f8;stroke:#bee3f8;stroke-width:0">
          <g
             id="path410">
            <path
               style="color:#000000;stroke:none;-inkscape-stroke:none"
               d="m 108.93687,144.23619 q -2.85937,1.3125 -6.25781,2.29688 -3.374998,0.96093 -6.539061,0.96093 -4.078125,0 -7.476562,-1.125 -3.398438,-1.125 -5.789063,-3.375 -2.414062,-2.27343 -3.726562,-5.67187 -1.3125,-3.42188 -1.3125,-7.99219 0,-8.36719 4.875,-13.19531 4.898437,-4.85156 13.429687,-4.85156 2.976563,0 6.070311,0.72656 3.11719,0.70312 6.70313,2.41406 v 5.50781 h -0.42188 q -0.72656,-0.5625 -2.10937,-1.47656 -1.38282,-0.91406 -2.71875,-1.52344 -1.61719,-0.72656 -3.679691,-1.19531 -2.039062,-0.49219 -4.640625,-0.49219 -5.859375,0 -9.28125,3.77344 -3.398437,3.75 -3.398437,10.17188 0,6.77343 3.5625,10.54687 3.5625,3.75 9.703125,3.75 2.25,0 4.476558,-0.44531 2.25,-0.44531 3.9375,-1.14844 v -8.55469 h -9.351558 v -4.07812 h 13.945308 z"
               id="path417" />
            <path
               style="color:#000000;stroke:none;-inkscape-stroke:none"
               d="m 108.93687,144.23619 c -1.90624,0.875 -3.99219,1.64063 -6.25781,2.29688 -2.25,0.64062 -4.429688,0.96093 -6.539061,0.96093 -2.718747,0 -5.21094,-0.375 -7.476562,-1.125 -2.265623,-0.75 -4.195315,-1.875 -5.789063,-3.375 -1.609373,-1.51562 -2.851563,-3.40625 -3.726562,-5.67187 -0.874999,-2.28125 -1.3125,-4.94532 -1.3125,-7.99219 0,-5.57812 1.625003,-9.97657 4.875,-13.19531 3.265621,-3.23437 7.742193,-4.85156 13.429687,-4.85156 1.984373,0 4.007811,0.24219 6.070311,0.72656 2.07812,0.46875 4.31251,1.27343 6.70313,2.41406 v 5.50781 h -0.42188 c -0.48437,-0.375 -1.1875,-0.86719 -2.10937,-1.47656 -0.92188,-0.60937 -1.82813,-1.11719 -2.71875,-1.52344 -1.07813,-0.48437 -2.30469,-0.88281 -3.679691,-1.19531 -1.359373,-0.32813 -2.906251,-0.49219 -4.640625,-0.49219 -3.906246,0 -7.000002,1.25782 -9.28125,3.77344 -2.265622,2.5 -3.398437,5.89063 -3.398437,10.17188 0,4.51562 1.187502,8.03125 3.5625,10.54687 2.374998,2.5 5.609379,3.75 9.703125,3.75 1.499998,0 2.992187,-0.14844 4.476558,-0.44531 1.5,-0.29687 2.8125,-0.67969 3.9375,-1.14844 v -8.55469 h -9.351558 v -4.07812 h 13.945308 z"
               id="path419" />
          </g>
          <g
             id="path412">
            <path
               style="color:#000000;stroke:none;-inkscape-stroke:none"
               d="m 143.99937,144.28307 q -1.28906,0.5625 -2.34375,1.05468 -1.03125,0.49219 -2.71875,1.03125 -1.42968,0.44532 -3.11718,0.75 -1.66407,0.32813 -3.67969,0.32813 -3.79688,0 -6.91406,-1.05469 -3.09375,-1.07812 -5.39063,-3.35156 -2.25,-2.22656 -3.51562,-5.64844 -1.26563,-3.44531 -1.26563,-7.99219 0,-4.3125 1.21875,-7.71093 1.21875,-3.39844 3.51563,-5.74219 2.22656,-2.27344 5.36718,-3.46875 3.16407,-1.19531 7.00782,-1.19531 2.8125,0 5.60156,0.67968 2.8125,0.67969 6.23437,2.39063 v 5.50781 h -0.35156 q -2.88281,-2.41406 -5.71875,-3.51562 -2.83594,-1.10157 -6.07031,-1.10157 -2.64844,0 -4.78125,0.86719 -2.10938,0.84375 -3.77344,2.64844 -1.61719,1.75781 -2.53125,4.45312 -0.89062,2.67188 -0.89062,6.1875 0,3.67969 0.98437,6.32813 1.00781,2.64844 2.57813,4.3125 1.64062,1.73437 3.82031,2.57812 2.20312,0.82032 4.64062,0.82032 3.35157,0 6.28125,-1.14844 2.92969,-1.14844 5.48438,-3.44531 h 0.32812 z"
               id="path423" />
            <path
               style="color:#000000;stroke:none;-inkscape-stroke:none"
               d="m 143.99937,144.28307 c -0.85937,0.375 -1.64062,0.72656 -2.34375,1.05468 -0.6875,0.32813 -1.59375,0.67188 -2.71875,1.03125 -0.95312,0.29688 -1.99218,0.54688 -3.11718,0.75 -1.10938,0.21875 -2.33594,0.32813 -3.67969,0.32813 -2.53125,0 -4.83594,-0.35156 -6.91406,-1.05469 -2.0625,-0.71875 -3.85938,-1.83593 -5.39063,-3.35156 -1.5,-1.48437 -2.67187,-3.36719 -3.51562,-5.64844 -0.84375,-2.29687 -1.26563,-4.96094 -1.26563,-7.99219 0,-2.875 0.40625,-5.44531 1.21875,-7.71093 0.8125,-2.26562 1.98438,-4.17969 3.51563,-5.74219 1.48437,-1.51563 3.27344,-2.67188 5.36718,-3.46875 2.10938,-0.79687 4.44532,-1.19531 7.00782,-1.19531 1.875,0 3.74219,0.22656 5.60156,0.67968 1.875,0.45313 3.95313,1.25 6.23437,2.39063 v 5.50781 h -0.35156 c -1.92187,-1.60937 -3.82813,-2.78125 -5.71875,-3.51562 -1.89062,-0.73438 -3.91407,-1.10157 -6.07031,-1.10157 -1.76562,0 -3.35938,0.28906 -4.78125,0.86719 -1.40625,0.5625 -2.66407,1.44531 -3.77344,2.64844 -1.07813,1.17187 -1.92188,2.65625 -2.53125,4.45312 -0.59375,1.78125 -0.89062,3.84376 -0.89062,6.1875 0,2.45312 0.32812,4.56251 0.98437,6.32813 0.67187,1.76562 1.53125,3.20313 2.57813,4.3125 1.09375,1.15625 2.36718,2.01562 3.82031,2.57812 1.46875,0.54688 3.01562,0.82032 4.64062,0.82032 2.23438,0 4.32813,-0.38281 6.28125,-1.14844 1.95312,-0.76563 3.78126,-1.91406 5.48438,-3.44531 h 0.32812 z"
               id="path425" />
          </g>
        </g>
      </g>
    </g>
  </g>
</svg>
