<?xml version="1.0" encoding="iso-8859-1"?>
<!-- Generator: Adobe Illustrator 18.0.0, SVG Export Plug-In . SVG Version: 6.00 Build 0)  -->
<!DOCTYPE svg PUBLIC "-//W3C//DTD SVG 1.1//EN" "http://www.w3.org/Graphics/SVG/1.1/DTD/svg11.dtd">
<svg version="1.1" id="Capa_1" xmlns="http://www.w3.org/2000/svg" xmlns:xlink="http://www.w3.org/1999/xlink" x="0px" y="0px"
	 viewBox="0 0 60 60" style="enable-background:new 0 0 60 60;" xml:space="preserve">
<g>
	<polygon points="39.482,37.455 60,57.153 60,16.863 	"/>
	<polygon points="0,16.86 0,57.153 20.519,37.454 	"/>
	<path d="M22.906,37.017l5.941,5.963c0.635,0.591,1.672,0.59,2.333-0.025l5.911-5.933c0.046-0.105,0.4-0.473,0.522-0.524
		l21.002-21.079h-0.567c0.124-0.454,0.141-0.934,0.014-1.405L54.727,1.581L3.92,15.194c-0.162,0.044-0.299,0.126-0.42,0.225H1.387
		l21.002,21.08C22.511,36.55,22.86,36.914,22.906,37.017z M53.317,4.029l2.814,10.502c0.078,0.292-0.043,0.509-0.122,0.611
		c-0.079,0.104-0.257,0.276-0.56,0.276h-4.257l-1.411-5.266l-9.659,2.588l0.717,2.678H10.81L53.317,4.029z"/>
	<path d="M32.57,44.393c-0.73,0.68-1.657,1.019-2.58,1.019c-0.914,0-1.823-0.332-2.533-0.993l-5.526-5.546L1.569,58.419h56.862
		L38.07,38.873L32.57,44.393z"/>
	<path d="M29.075,6.419H4c-0.552,0-1,0.447-1,1v6.121c0.197-0.137,0.417-0.246,0.66-0.312L29.075,6.419z"/>
</g>
<g>
</g>
<g>
</g>
<g>
</g>
<g>
</g>
<g>
</g>
<g>
</g>
<g>
</g>
<g>
</g>
<g>
</g>
<g>
</g>
<g>
</g>
<g>
</g>
<g>
</g>
<g>
</g>
<g>
</g>
</svg>
